<svg xmlns="http://www.w3.org/2000/svg" width="1280" height="800" viewBox="0 0 1280 800">
  <defs>
    <linearGradient id="bg" x1="0" y1="0" x2="1280" y2="800" gradientUnits="userSpaceOnUse">
      <stop offset="0" stop-color="#f7fbf6"/>
      <stop offset="1" stop-color="#eaf4ef"/>
    </linearGradient>
    <linearGradient id="brand" x1="0" y1="0" x2="1" y2="1">
      <stop offset="0" stop-color="#2f8f81"/>
      <stop offset="1" stop-color="#c79025"/>
    </linearGradient>
    <filter id="shadow" x="-20%" y="-20%" width="150%" height="160%">
      <feDropShadow dx="0" dy="22" stdDeviation="26" flood-color="#1f3652" flood-opacity="0.18"/>
    </filter>
  </defs>

  <rect width="1280" height="800" fill="url(#bg)"/>
  <rect x="96" y="58" width="1088" height="640" rx="22" fill="#ffffff" opacity="0.72"/>
  <rect x="310" y="150" width="520" height="20" rx="10" fill="#dfe9e3"/>
  <rect x="310" y="198" width="640" height="14" rx="7" fill="#e5ede8"/>
  <rect x="310" y="234" width="600" height="14" rx="7" fill="#e5ede8"/>
  <rect x="310" y="270" width="660" height="14" rx="7" fill="#e5ede8"/>
  <rect x="298" y="316" width="620" height="44" rx="10" fill="#ffeba9" opacity="0.55"/>
  <rect x="310" y="330" width="580" height="14" rx="7" fill="#9ca78f" opacity="0.65"/>
  <rect x="310" y="394" width="638" height="14" rx="7" fill="#e5ede8"/>
  <rect x="310" y="430" width="574" height="14" rx="7" fill="#e5ede8"/>

  <g transform="translate(806 96)" filter="url(#shadow)">
    <rect width="336" height="238" rx="16" fill="#fbfdf8"/>
    <circle cx="306" cy="24" r="12" fill="#f0f5f1"/>
    <rect x="0" y="18" width="3" height="202" rx="1.5" fill="url(#brand)"/>

    <g transform="translate(16 16)">
      <rect x="0" y="0" width="42" height="42" rx="10" fill="#f2faf3" stroke="#9fcdbf"/>
      <rect x="12" y="10" width="20" height="25" rx="4" fill="#ffffff" stroke="#dbeee7"/>
      <rect x="18" y="19" width="12" height="5" rx="2.5" fill="#f3d987"/>
      <circle cx="31" cy="31" r="10" fill="#2f8f81"/>
      <path d="M28 25L36 31L28 37Z" fill="#ffffff"/>

      <text x="54" y="12" fill="#247b70" font-family="PingFang SC, Microsoft YaHei, sans-serif" font-size="10" font-weight="700">公众号边听边读</text>
      <text x="54" y="31" fill="#1d2a32" font-family="PingFang SC, Microsoft YaHei, sans-serif" font-size="14" font-weight="700">逐句高亮阅读</text>
      <text x="54" y="50" fill="#63717a" font-family="PingFang SC, Microsoft YaHei, sans-serif" font-size="11">当前页可朗读</text>

      <rect x="0" y="70" width="304" height="66" rx="10" fill="#ffffff" stroke="#e3ebe3"/>
      <text x="12" y="96" fill="#1d2a32" font-family="PingFang SC, Microsoft YaHei, sans-serif" font-size="14" font-weight="700">准备续播</text>
      <text x="256" y="96" fill="#63717a" font-family="PingFang SC, Microsoft YaHei, sans-serif" font-size="12">37 / 86</text>
      <rect x="12" y="116" width="280" height="6" rx="3" fill="#e7eee9"/>
      <rect x="12" y="116" width="121" height="6" rx="3" fill="#2f8f81"/>
      <circle cx="133" cy="119" r="8" fill="#2f8f81" stroke="#ffffff" stroke-width="3"/>

      <rect x="0" y="154" width="32" height="32" rx="8" fill="#ffffff" stroke="#dce6e0"/>
      <text x="12" y="176" fill="#24313a" font-family="PingFang SC, Microsoft YaHei, sans-serif" font-size="22">‹</text>
      <rect x="40" y="154" width="80" height="32" rx="9" fill="url(#brand)"/>
      <path d="M69 163L82 170L69 177Z" fill="#ffffff"/>
      <text x="88" y="176" fill="#ffffff" font-family="PingFang SC, Microsoft YaHei, sans-serif" font-size="13" font-weight="700">开始</text>
      <rect x="128" y="154" width="32" height="32" rx="8" fill="#ffffff" stroke="#dce6e0"/>
      <text x="140" y="176" fill="#24313a" font-family="PingFang SC, Microsoft YaHei, sans-serif" font-size="22">›</text>
      <text x="184" y="176" fill="#63717a" font-family="PingFang SC, Microsoft YaHei, sans-serif" font-size="12">语速</text>
      <rect x="222" y="154" width="82" height="32" rx="8" fill="#ffffff" stroke="#dce6e0"/>
      <text x="240" y="176" fill="#24313a" font-family="PingFang SC, Microsoft YaHei, sans-serif" font-size="13">1.25x</text>
    </g>
  </g>

  <g transform="translate(906 62)">
    <rect x="0" y="0" width="48" height="48" rx="24" fill="#ffffff" filter="url(#shadow)"/>
    <rect x="12" y="10" width="20" height="25" rx="4" fill="#f2faf3" stroke="#9fcdbf"/>
    <circle cx="34" cy="32" r="10" fill="#2f8f81"/>
    <path d="M31 26L39 32L31 38Z" fill="#ffffff"/>
  </g>
</svg>
